<svg width="258" height="256" viewBox="0 0 258 256" fill="none" xmlns="http://www.w3.org/2000/svg">
<path d="M86.8313 42.4858H39.1325C38.0279 42.4858 37.1325 43.3813 37.1325 44.4858V63.2591C37.1325 64.3637 38.0279 65.2591 39.1325 65.2591H86.8313" stroke="black" stroke-width="8" stroke-linecap="round"/>
<path d="M171.169 42.4858H218.365C219.47 42.4858 220.365 43.3813 220.365 44.4858V62.753C220.365 63.8576 219.47 64.753 218.365 64.753H171.169" stroke="black" stroke-width="8" stroke-linecap="round"/>
<path d="M220.867 65.7652L252.07 115.331C252.909 116.663 251.951 118.397 250.378 118.397H217.855M36.1285 66.2713L5.87956 115.347C5.05825 116.68 6.01685 118.397 7.58213 118.397H40.1446M40.1446 118.397L62.2329 66.2713M40.1446 118.397H75.7871M75.7871 118.397L86.8313 66.2713M75.7871 118.397H111.932M111.932 118.397L113.94 88.0324M111.932 118.397H146.57M146.57 118.397L144.562 88.0324M146.57 118.397H182.213M182.213 118.397L171.169 65.7652M182.213 118.397H217.855M217.855 118.397L195.265 65.7652" stroke="black" stroke-width="8" stroke-linecap="round"/>
<path d="M5.00402 116.879C2.49398 121.433 7.01205 138.134 22.0723 138.134C34.1205 138.134 39.6426 128.012 40.1446 118.397" stroke="black" stroke-width="8" stroke-linecap="round"/>
<path d="M252.996 117.385C254.502 122.445 251.49 137.628 236.43 137.628C222.875 137.628 218.859 129.024 218.357 119.409" stroke="black" stroke-width="8" stroke-linecap="round"/>
<path d="M218.357 119.409C218.357 132.061 207.815 138.134 200.285 138.134C192.755 138.134 182.213 131.555 182.213 119.409" stroke="black" stroke-width="8" stroke-linecap="round"/>
<path d="M182.213 119.409C182.213 132.061 171.671 138.134 164.141 138.134C156.61 138.134 146.068 131.555 146.068 119.409" stroke="black" stroke-width="8" stroke-linecap="round"/>
<path d="M146.068 119.409C146.068 132.061 136.53 138.134 129 138.134C121.47 138.134 110.928 131.555 110.928 119.409" stroke="black" stroke-width="8" stroke-linecap="round"/>
<path d="M110.928 119.409C110.928 132.061 101.39 138.134 93.3575 138.134C84.3213 138.134 74.2812 129.53 74.7832 119.409" stroke="black" stroke-width="8" stroke-linecap="round"/>
<path d="M74.7831 119.409C74.7831 132.061 65.747 138.134 58.2169 138.134C48.6787 138.134 40.1446 130.543 40.1446 118.397" stroke="black" stroke-width="8" stroke-linecap="round"/>
<path d="M4 252H23.5783H43.1566" stroke="black" stroke-width="8" stroke-linecap="round"/>
<path d="M23.0763 252V138.134" stroke="black" stroke-width="8" stroke-linecap="round"/>
<path d="M63.739 252L158.618 252L253.498 252" stroke="black" stroke-width="8" stroke-linecap="round"/>
<path d="M167.153 252V166.955C167.153 165.851 168.048 164.955 169.153 164.955H214.349C215.454 164.955 216.349 165.851 216.349 166.955V251.494" stroke="black" stroke-width="8" stroke-linecap="round"/>
<path d="M235.426 252V137.628" stroke="black" stroke-width="8" stroke-linecap="round"/>
<path d="M147.08 164.955H43.6506C42.5461 164.955 41.6506 165.851 41.6506 166.955V221.66C41.6506 222.764 42.5461 223.66 43.6506 223.66H147.08C148.185 223.66 149.08 222.764 149.08 221.66V166.955C149.08 165.851 148.185 164.955 147.08 164.955Z" stroke="black" stroke-width="8" stroke-linecap="round"/>
<path d="M81.8113 2H102.361M176.189 2H155.639M90.1835 9.91748H86.8557C85.7511 9.91748 84.8557 10.8129 84.8557 11.9175V14.0355C84.8557 15.1401 85.7511 16.0355 86.8557 16.0355H171.144C172.249 16.0355 173.144 15.1401 173.144 14.0355V11.9175C173.144 10.8129 172.249 9.91748 171.144 9.91748H155.639M97.7946 9.91748H102.361M102.361 9.91748V2M102.361 9.91748H155.639M102.361 2H155.639M155.639 9.91748V2" stroke="black" stroke-width="4" stroke-linecap="round"/>
<path d="M89.0417 16.0355V70.0183C89.0417 73.6172 90.5639 75.4166 93.9889 77.216L125.955 90.8917C129 91.9713 129 91.9713 132.044 90.8917L164.011 77.216C167.816 75.4166 168.958 73.6172 168.958 70.0183V16.0355" stroke="black" stroke-width="4" stroke-linecap="round"/>
<path d="M137.372 38.3484L142.89 33.1301C143.614 32.4461 143.614 31.2949 142.89 30.6109V30.6109C142.167 29.9269 142.167 28.7757 142.89 28.0917L144.37 26.6921C145.141 25.9629 146.348 25.9629 147.119 26.6921L154.102 33.2964C154.937 34.0855 154.937 35.4136 154.102 36.2027L152.785 37.4487C152.037 38.1555 150.868 38.1554 150.121 37.4487V37.4487C149.374 36.742 148.204 36.742 147.457 37.4487L141.939 42.667" stroke="black" stroke-width="4" stroke-linecap="round"/>
<path d="M140.417 56.7026C141.558 55.6229 143.842 45.906 139.655 40.8676C135.264 35.5825 115.9 39.788 107.688 46.9857M137.753 62.4607C136.307 65.1944 134.519 68.0902 132.428 70.3782M132.428 70.3782C130.115 72.9096 127.432 74.6968 124.433 74.6968C105.405 72.5375 103.503 55.263 103.503 54.5432C103.503 51.8028 105.124 49.2331 107.688 46.9857M132.428 70.3782C132.428 62.4607 125.194 46.6258 107.688 46.9857" stroke="black" stroke-width="4" stroke-linecap="round"/>
<path d="M120.702 63.4524C120.414 63.7448 119.887 63.9725 119.064 63.8924C118.239 63.8122 117.252 63.4195 116.376 62.6475C115.501 61.8755 115.018 60.9713 114.876 60.1992C114.734 59.4283 114.937 58.9148 115.225 58.6223C115.514 58.3299 116.041 58.1022 116.864 58.1823C117.689 58.2625 118.676 58.6552 119.552 59.4272C120.427 60.1992 120.91 61.1034 121.052 61.8755C121.194 62.6464 120.991 63.1599 120.702 63.4524Z" stroke="black" stroke-width="4"/>
</svg>
