<svg width="258" height="256" viewBox="0 0 258 256" fill="none" xmlns="http://www.w3.org/2000/svg">
<path d="M86.8313 42.4858H39.1325C38.028 42.4858 37.1325 43.3813 37.1325 44.4858V63.2591C37.1325 64.3637 38.028 65.2591 39.1325 65.2591H86.8313" stroke="black" stroke-width="8" stroke-linecap="round"/>
<path d="M171.169 42.4858H218.365C219.47 42.4858 220.365 43.3813 220.365 44.4858V62.753C220.365 63.8576 219.47 64.753 218.365 64.753H171.169" stroke="black" stroke-width="8" stroke-linecap="round"/>
<path d="M220.867 65.7652L252.07 115.331C252.909 116.663 251.951 118.397 250.378 118.397H217.855M36.1285 66.2713L5.87956 115.347C5.05825 116.68 6.01685 118.397 7.58213 118.397H40.1446M40.1446 118.397L62.2329 66.2713M40.1446 118.397H75.7871M75.7871 118.397L86.8313 66.2713M75.7871 118.397H111.932M111.932 118.397L113.94 88.0324M111.932 118.397H146.57M146.57 118.397L144.562 88.0324M146.57 118.397H182.213M182.213 118.397L171.169 65.7652M182.213 118.397H217.855M217.855 118.397L195.265 65.7652" stroke="black" stroke-width="8" stroke-linecap="round"/>
<path d="M5.00402 116.879C2.49398 121.433 7.01205 138.134 22.0723 138.134C34.1205 138.134 39.6426 128.012 40.1446 118.397" stroke="black" stroke-width="8" stroke-linecap="round"/>
<path d="M252.996 117.385C254.502 122.445 251.49 137.628 236.43 137.628C222.875 137.628 218.859 129.024 218.357 119.409" stroke="black" stroke-width="8" stroke-linecap="round"/>
<path d="M218.357 119.409C218.357 132.061 207.815 138.134 200.285 138.134C192.755 138.134 182.213 131.555 182.213 119.409" stroke="black" stroke-width="8" stroke-linecap="round"/>
<path d="M182.213 119.409C182.213 132.061 171.671 138.134 164.141 138.134C156.61 138.134 146.068 131.555 146.068 119.409" stroke="black" stroke-width="8" stroke-linecap="round"/>
<path d="M146.068 119.409C146.068 132.061 136.53 138.134 129 138.134C121.47 138.134 110.928 131.555 110.928 119.409" stroke="black" stroke-width="8" stroke-linecap="round"/>
<path d="M110.928 119.409C110.928 132.061 101.39 138.134 93.3574 138.134C84.3213 138.134 74.2811 129.53 74.7831 119.409" stroke="black" stroke-width="8" stroke-linecap="round"/>
<path d="M74.7831 119.409C74.7831 132.061 65.747 138.134 58.2169 138.134C48.6787 138.134 40.1446 130.543 40.1446 118.397" stroke="black" stroke-width="8" stroke-linecap="round"/>
<path d="M4 252H23.5783H43.1566" stroke="black" stroke-width="8" stroke-linecap="round"/>
<path d="M23.0763 252V138.134" stroke="black" stroke-width="8" stroke-linecap="round"/>
<path d="M63.739 252L158.618 252L253.498 252" stroke="black" stroke-width="8" stroke-linecap="round"/>
<path d="M167.153 252V166.955C167.153 165.851 168.048 164.955 169.153 164.955H214.349C215.454 164.955 216.349 165.851 216.349 166.955V251.494" stroke="black" stroke-width="8" stroke-linecap="round"/>
<path d="M235.426 252V137.628" stroke="black" stroke-width="8" stroke-linecap="round"/>
<path d="M147.08 164.955H43.6506C42.546 164.955 41.6506 165.851 41.6506 166.955V221.66C41.6506 222.764 42.546 223.66 43.6506 223.66H147.08C148.185 223.66 149.08 222.764 149.08 221.66V166.955C149.08 165.851 148.185 164.955 147.08 164.955Z" stroke="black" stroke-width="8" stroke-linecap="round"/>
<path d="M81.8112 2H102.361M176.189 2H155.639M90.1834 9.91792H86.8557C85.7511 9.91792 84.8557 10.8134 84.8557 11.9179V14.0363C84.8557 15.1409 85.7511 16.0363 86.8557 16.0363H171.144C172.249 16.0363 173.144 15.1409 173.144 14.0363V11.9179C173.144 10.8134 172.249 9.91792 171.144 9.91792H155.639M97.7945 9.91792H102.361M102.361 9.91792V2M102.361 9.91792H155.639M102.361 2H155.639M155.639 9.91792V2" stroke="black" stroke-width="4" stroke-linecap="round"/>
<path d="M89.0418 16.0363V70.0222C89.0418 73.6212 90.5641 75.4207 93.989 77.2203L125.956 90.8967C129 91.9764 129 91.9764 132.044 90.8967L164.011 77.2203C167.817 75.4207 168.958 73.6212 168.958 70.0222V16.0363" stroke="black" stroke-width="4" stroke-linecap="round"/>
<path d="M134.04 31.9463C141.058 30.2853 137.549 24.8868 134.04 25.3021C112.985 26.2987 102.896 46.4807 102.896 54.7861C102.896 60.5999 109.914 58.9388 110.353 55.2014M134.04 31.9463C133.601 31.1158 151.962 69.3205 152.025 69.7358C152.401 72.2274 151.147 71.8121 149.831 71.8121C149.589 71.7793 143.614 69.2748 136.382 66.2197C135.063 65.6625 133.601 66.63 133.601 68.0618V69.3205C133.601 72.6426 128.337 72.6426 128.337 69.3205V64.1401C128.337 63.3371 127.856 62.6116 127.117 62.2983C118.112 58.4812 109.95 55.0106 110.353 55.2014M134.04 31.9463C114.739 34.8532 109.64 49.8029 110.353 55.2014M130.969 50.2181H132.724M117.81 47.7265L119.564 46.0655M133.601 38.5906L137.11 46.0655M129.653 29.4547H128.776M129.215 59.3541V57.693M144.129 61.0151V62.6762M114.301 37.7601C116.932 34.438 120.442 31.9463 124.828 30.2853M133.163 36.099H132.285M127.46 38.5906C125.267 38.5906 123.951 39.8364 123.951 41.9128C123.951 43.9891 125.267 45.2349 127.46 45.2349C129.653 45.2349 130.969 43.9891 130.969 41.9128C130.969 39.8364 129.653 38.5906 127.46 38.5906ZM122.196 49.3876C120.003 49.3876 118.687 50.6334 118.687 52.7098C118.687 54.7861 120.003 56.0319 122.196 56.0319C124.39 56.0319 125.705 54.7861 125.705 52.7098C125.705 50.6334 124.39 49.3876 122.196 49.3876ZM137.988 53.5403C135.795 53.5403 134.479 54.7861 134.479 56.8624C134.479 58.9388 135.795 60.1846 137.988 60.1846C140.181 60.1846 141.497 58.9388 141.497 56.8624C141.497 54.7861 140.181 53.5403 137.988 53.5403Z" stroke="black" stroke-width="2" stroke-linecap="round"/>
</svg>
