<svg width="258" height="256" viewBox="0 0 258 256" fill="none" xmlns="http://www.w3.org/2000/svg">
<path d="M86.8314 42.4858H39.1326C38.028 42.4858 37.1326 43.3813 37.1326 44.4858V63.2591C37.1326 64.3637 38.028 65.2591 39.1326 65.2591H86.8314" stroke="black" stroke-width="8" stroke-linecap="round"/>
<path d="M171.169 42.4858H218.365C219.47 42.4858 220.365 43.3813 220.365 44.4858V62.753C220.365 63.8576 219.47 64.753 218.365 64.753H171.169" stroke="black" stroke-width="8" stroke-linecap="round"/>
<path d="M220.867 65.7652L252.07 115.331C252.909 116.663 251.951 118.397 250.378 118.397H217.855M36.1285 66.2713L5.87956 115.347C5.05825 116.68 6.01685 118.397 7.58213 118.397H40.1446M40.1446 118.397L62.2329 66.2713M40.1446 118.397H75.7871M75.7871 118.397L86.8313 66.2713M75.7871 118.397H111.932M111.932 118.397L113.94 88.0324M111.932 118.397H146.57M146.57 118.397L144.562 88.0324M146.57 118.397H182.213M182.213 118.397L171.169 65.7652M182.213 118.397H217.855M217.855 118.397L195.265 65.7652" stroke="black" stroke-width="8" stroke-linecap="round"/>
<path d="M5.00414 116.879C2.4941 121.433 7.01217 138.134 22.0724 138.134C34.1206 138.134 39.6427 128.012 40.1447 118.397" stroke="black" stroke-width="8" stroke-linecap="round"/>
<path d="M252.996 117.385C254.502 122.445 251.49 137.628 236.43 137.628C222.876 137.628 218.859 129.024 218.357 119.409" stroke="black" stroke-width="8" stroke-linecap="round"/>
<path d="M218.357 119.409C218.357 132.061 207.815 138.134 200.285 138.134C192.755 138.134 182.213 131.555 182.213 119.409" stroke="black" stroke-width="8" stroke-linecap="round"/>
<path d="M182.213 119.409C182.213 132.061 171.671 138.134 164.141 138.134C156.61 138.134 146.068 131.555 146.068 119.409" stroke="black" stroke-width="8" stroke-linecap="round"/>
<path d="M146.068 119.409C146.068 132.061 136.53 138.134 129 138.134C121.47 138.134 110.928 131.555 110.928 119.409" stroke="black" stroke-width="8" stroke-linecap="round"/>
<path d="M110.928 119.409C110.928 132.061 101.39 138.134 93.3574 138.134C84.3213 138.134 74.2811 129.53 74.7831 119.409" stroke="black" stroke-width="8" stroke-linecap="round"/>
<path d="M74.7831 119.409C74.7831 132.061 65.7469 138.134 58.2168 138.134C48.6787 138.134 40.1445 130.543 40.1445 118.397" stroke="black" stroke-width="8" stroke-linecap="round"/>
<path d="M4 252H23.5783H43.1566" stroke="black" stroke-width="8" stroke-linecap="round"/>
<path d="M23.0763 252V138.134" stroke="black" stroke-width="8" stroke-linecap="round"/>
<path d="M63.739 252L158.619 252L253.498 252" stroke="black" stroke-width="8" stroke-linecap="round"/>
<path d="M167.153 252V166.955C167.153 165.851 168.048 164.955 169.153 164.955H214.349C215.454 164.955 216.349 165.851 216.349 166.955V251.494" stroke="black" stroke-width="8" stroke-linecap="round"/>
<path d="M235.426 252V137.628" stroke="black" stroke-width="8" stroke-linecap="round"/>
<path d="M147.08 164.955H43.6506C42.5461 164.955 41.6506 165.851 41.6506 166.955V221.66C41.6506 222.764 42.5461 223.66 43.6506 223.66H147.08C148.185 223.66 149.08 222.764 149.08 221.66V166.955C149.08 165.851 148.185 164.955 147.08 164.955Z" stroke="black" stroke-width="8" stroke-linecap="round"/>
<path d="M81.8112 2H102.361M176.189 2H155.639M90.1834 9.91792H86.8556C85.751 9.91792 84.8556 10.8134 84.8556 11.9179V14.0363C84.8556 15.1409 85.751 16.0363 86.8556 16.0363H171.144C172.249 16.0363 173.144 15.1409 173.144 14.0363V11.9179C173.144 10.8134 172.249 9.91792 171.144 9.91792H155.639M97.7944 9.91792H102.361M102.361 9.91792V2M102.361 9.91792H155.639M102.361 2H155.639M155.639 9.91792V2" stroke="black" stroke-width="4" stroke-linecap="round"/>
<path d="M89.0417 16.0363V70.0222C89.0417 73.6212 90.564 75.4207 93.989 77.2203L125.956 90.8967C129 91.9764 129 91.9764 132.044 90.8967L164.011 77.2203C167.817 75.4207 168.958 73.6212 168.958 70.0222V16.0363" stroke="black" stroke-width="4" stroke-linecap="round"/>
<path d="M122.911 41.5896L124.433 40.15M143.081 48.7877V41.0113C143.081 40.4615 143.307 39.936 143.706 39.5582L145.609 37.7584M143.081 48.7877V58.8651M143.081 48.7877L120.438 70.2021M116.061 48.0679L111.875 52.0269M143.081 58.8651L140.248 60.5601C139.644 60.9212 139.275 61.5729 139.275 62.2763V67.3365C139.275 68.4276 140.15 69.3174 141.241 69.3362L144.091 69.3852C145.208 69.4044 146.125 68.5035 146.125 67.3855V62.1439C146.125 61.5135 145.828 60.92 145.323 60.5424L143.081 58.8651ZM145.609 28.2731L148.558 25.5718C149.331 24.8631 150.521 24.8725 151.283 25.5934L153.341 27.5398C154.176 28.3289 154.176 29.6569 153.341 30.446L150.624 33.0157M145.609 28.2731L150.624 33.0157M145.609 28.2731L140.433 33.0157M150.624 33.0157L145.609 37.7584M140.433 33.0157L138.326 34.9459C137.957 35.2838 137.475 35.4712 136.975 35.4712H130.177C129.665 35.4712 129.174 35.6669 128.802 36.0181L124.433 40.15M140.433 33.0157V35.8988C140.433 37.0386 141.384 37.9479 142.523 37.8968L145.609 37.7584M124.433 40.15L131.65 46.9747C132.484 47.7638 132.484 49.0918 131.65 49.8809L121.683 59.3071C120.887 60.0595 119.634 60.0323 118.872 59.246L111.875 52.0269M111.875 52.0269L104.638 58.8714C103.811 59.6531 103.802 60.9657 104.618 61.7586L115.447 72.2847C116.216 73.0317 117.437 73.0401 118.215 72.3036L120.438 70.2021M113.397 63.184L114.158 63.9038M116.822 66.783L120.438 70.2021M119.867 44.109L119.106 44.8288" stroke="black" stroke-width="3" stroke-linecap="round"/>
</svg>
