<svg width="48" height="48" viewBox="0 0 48 48" fill="none" xmlns="http://www.w3.org/2000/svg">
<path fill-rule="evenodd" clip-rule="evenodd" d="M41.1771 8.60743C40.9798 8.5116 40.749 8.51378 40.5536 8.61333L19.1318 19.524C18.6167 19.7864 18.6236 20.5248 19.1437 20.7774L23.7243 23.0023C23.9216 23.0982 24.1524 23.096 24.3479 22.9964L45.7696 12.0858C46.2848 11.8234 46.2778 11.085 45.7578 10.8324L41.1771 8.60743Z" fill="#C72524"/>
<path fill-rule="evenodd" clip-rule="evenodd" d="M32.6157 4.25402C32.4174 4.15558 32.1842 4.15679 31.9869 4.25729L10.5552 15.173C10.0424 15.4341 10.0463 16.168 10.5617 16.4238L15.1589 18.7053C15.3573 18.8038 15.5905 18.8025 15.7878 18.702L37.2195 7.78633C37.7322 7.52519 37.7284 6.79134 37.213 6.53555L32.6157 4.25402Z" fill="#C72524"/>
<path fill-rule="evenodd" clip-rule="evenodd" d="M24.2783 0.15871C24.0797 0.0589063 23.8454 0.0593967 23.6472 0.160031L2.14485 11.076C1.63141 11.3367 1.63475 12.0713 2.15054 12.3272L6.74574 14.6078C6.94409 14.7062 7.17731 14.705 7.37462 14.6045L28.8139 3.68494C29.3252 3.42451 29.3232 2.69329 28.8104 2.43568L24.2783 0.15871Z" fill="#C72524"/>
<path fill-rule="evenodd" clip-rule="evenodd" d="M30.7919 45.0739C31.0262 44.9537 31.1732 44.7122 31.1723 44.4489L31.1023 22.6811C31.1006 22.156 30.5427 21.8196 30.0775 22.0633L25.3907 24.5182C25.1593 24.6394 25.0146 24.8793 25.0155 25.1405L25.0855 46.8582C25.0872 47.3808 25.6401 47.7173 26.1051 47.4787L30.7919 45.0739Z" fill="black"/>
<path fill-rule="evenodd" clip-rule="evenodd" d="M39.3553 40.7162C39.5896 40.596 39.7366 40.3545 39.7357 40.0912L39.6657 18.3775C39.664 17.855 39.111 17.5184 38.6461 17.757L33.9593 20.1618C33.725 20.282 33.578 20.5235 33.5789 20.7869L33.6489 42.5005C33.6506 43.023 34.2035 43.3596 34.6685 43.121L39.3553 40.7162Z" fill="black"/>
<path fill-rule="evenodd" clip-rule="evenodd" d="M47.6182 36.4236C47.8525 36.3034 47.9995 36.0618 47.9986 35.7985L47.9286 14.0849C47.9269 13.5623 47.374 13.2258 46.909 13.4643L42.2222 15.8691C41.9879 15.9894 41.8409 16.2309 41.8418 16.4942L41.9118 38.2078C41.9135 38.7304 42.4664 39.0669 42.9314 38.8284L47.6182 36.4236Z" fill="black"/>
<path fill-rule="evenodd" clip-rule="evenodd" d="M23.1083 29.8545C23.1209 30.3836 22.5644 30.7348 22.0922 30.4956L0.523777 19.5713C0.293754 19.4548 0.146405 19.2213 0.140266 18.9635L0.0278585 14.2431C0.0152586 13.7139 0.571789 13.3628 1.04395 13.6019L22.6124 24.5263C22.8424 24.6428 22.9897 24.8763 22.9959 25.1341L23.1083 29.8545Z" fill="black"/>
<path fill-rule="evenodd" clip-rule="evenodd" d="M23.1082 38.0466C23.1208 38.5764 22.563 38.9276 22.0907 38.687L0.5224 27.7017C0.293143 27.585 0.146417 27.3519 0.140292 27.0947L0.0279298 22.3761C0.0153133 21.8463 0.573185 21.4952 1.04543 21.7357L22.6137 32.721C22.843 32.8378 22.9897 33.0709 22.9959 33.3281L23.1082 38.0466Z" fill="black"/>
<path fill-rule="evenodd" clip-rule="evenodd" d="M23.1082 46.2417C23.1208 46.7716 22.563 47.1227 22.0907 46.8822L0.5224 35.8969C0.293143 35.7801 0.146417 35.547 0.140292 35.2898L0.0279298 30.5712C0.0153133 30.0414 0.573185 29.6903 1.04543 29.9308L22.6137 40.9161C22.843 41.0329 22.9897 41.266 22.9959 41.5232L23.1082 46.2417Z" fill="black"/>
</svg>
